<svg width="375" height="431" viewBox="0 0 375 431" fill="none" xmlns="http://www.w3.org/2000/svg">
<path opacity="0.7" d="M182.863 -112.496C201.387 -112.393 217.016 -110.37 228.012 -108.374C233.509 -107.376 237.849 -106.385 240.812 -105.644C242.293 -105.273 243.43 -104.965 244.195 -104.75C244.578 -104.642 244.869 -104.558 245.062 -104.501C245.159 -104.472 245.232 -104.45 245.28 -104.436C245.304 -104.428 245.323 -104.423 245.335 -104.419C245.341 -104.417 245.345 -104.416 245.348 -104.415C245.349 -104.415 245.35 -104.414 245.351 -104.414C245.351 -104.414 245.352 -104.414 245.5 -104.892L245.352 -104.414L245.362 -104.41L245.374 -104.407C245.375 -104.407 245.376 -104.407 245.377 -104.406C245.379 -104.406 245.383 -104.405 245.388 -104.403C245.398 -104.401 245.413 -104.397 245.434 -104.392C245.475 -104.381 245.537 -104.364 245.619 -104.342C245.784 -104.297 246.03 -104.227 246.354 -104.133C247.005 -103.944 247.972 -103.654 249.229 -103.247C251.746 -102.434 255.43 -101.157 260.093 -99.3066C269.417 -95.606 282.654 -89.6099 298.287 -80.4307C329.552 -62.0723 370.401 -30.9822 408.705 19.9365C446.985 70.824 465.069 131.859 463.394 188.12C461.718 244.384 440.286 295.832 399.587 327.612C358.787 359.472 331.126 371.883 300.702 377.302C285.475 380.014 269.543 380.977 250.898 381.736C232.26 382.496 210.915 383.053 184.9 384.958C132.804 388.774 95.3267 406.832 61.2783 419.014C27.2324 431.194 -3.41769 437.523 -42.0996 418.14C-119.557 379.325 -151.241 288.09 -116.448 195.414C-99.0101 148.965 -80.3324 96.8316 -54.4209 48.6172C-28.5116 0.40692 4.61233 -43.8477 50.915 -74.5449C97.2051 -105.234 145.814 -112.703 182.863 -112.496Z" fill="#FFD4DF" stroke="black"/>
</svg>
