<svg width="20" height="21" viewBox="0 0 20 21" fill="none" xmlns="http://www.w3.org/2000/svg">
<path d="M9.58329 18.625C4.87496 18.625 1.04163 14.7916 1.04163 10.0833C1.04163 5.37496 4.87496 1.54163 9.58329 1.54163C14.2916 1.54163 18.125 5.37496 18.125 10.0833C18.125 14.7916 14.2916 18.625 9.58329 18.625ZM9.58329 2.79163C5.55829 2.79163 2.29163 6.06663 2.29163 10.0833C2.29163 14.1 5.55829 17.375 9.58329 17.375C13.6083 17.375 16.875 14.1 16.875 10.0833C16.875 6.06663 13.6083 2.79163 9.58329 2.79163Z" fill="#1B5E37"/>
<path d="M18.3333 19.4583C18.175 19.4583 18.0166 19.4 17.8916 19.275L16.225 17.6083C15.9833 17.3666 15.9833 16.9666 16.225 16.725C16.4666 16.4833 16.8666 16.4833 17.1083 16.725L18.775 18.3916C19.0166 18.6333 19.0166 19.0333 18.775 19.275C18.65 19.4 18.4916 19.4583 18.3333 19.4583Z" fill="#1B5E37"/>
</svg>
